<?xml version="1.0" encoding="UTF-8" standalone="no"?>
<svg xmlns:svg="http://www.w3.org/2000/svg" xmlns="http://www.w3.org/2000/svg" version="1.0" width="360" height="500">
<title>New Zealand Parliament (current composition)</title>
<desc>Diagrammatic representation of the current composition of the New Zealand House of Representatives</desc>

<g>

<!-- Index background -->
<polygon fill="#EEEEEE" points="100,200 260,200 260,365 100,365"/>

<!-- Index text -->
<text x="127" y="225" style="font-size:16px;text-align:left;text-anchor:left;font-weight:bold;font-family:Arial">Labour  </text>
<text x="200" y="225" style="font-size:12px;text-align:left;text-anchor:left;font-family:Arial">(65 seats)  </text>
<text x="127" y="250" style="font-size:16px;text-align:left;text-anchor:left;font-weight:bold;font-family:Arial">National  </text>
<text x="200" y="250" style="font-size:12px;text-align:left;text-anchor:left;font-family:Arial">(33 seats)  </text>
<text x="127" y="275" style="font-size:16px;font-weight:bold;text-align:left;text-anchor:left;font-family:Arial">Green  </text>
<text x="200" y="275" style="font-size:12px;text-align:left;text-anchor:left;font-family:Arial">(10 seats)  </text>
<text x="127" y="300" style="font-size:16px;font-weight:bold;text-align:left;text-anchor:left;font-family:Arial">ACT  </text>
<text x="200" y="300" style="font-size:12px;text-align:left;text-anchor:left;font-family:Arial">(10 seat)  </text>
<text x="127" y="325" style="font-size:16px;font-weight:bold;text-align:left;text-anchor:left;font-family:Arial">Maori </text>
<text x="200" y="325" style="font-size:12px;text-align:left;text-anchor:left;font-family:Arial">(2 seats)  </text>
<text x="160" y="350" style="font-size:12px;font-weight:bold;text-align:left;text-anchor:left;font-family:Arial">Total: 120 seats  </text>

<text x="150" y="440" style="font-size:16px;font-weight:bold;text-align:left;text-anchor:left;font-family:Arial">Speaker </text>

<!-- Index box -->
<line stroke="#999" x1="100" y1="200" x2="100" y2="365"/>
<line stroke="#999" x1="100" y1="200" x2="260" y2="200"/>
<line stroke="#999" x1="260" y1="200" x2="260" y2="365"/>
<line stroke="#999" x1="100" y1="365" x2="260" y2="365"/>


<g style="fill:#D82A20" id="Labour">

<!-- Index colour -->
<circle cx="115" cy="220" r="8"/>

<!-- 5th row, hemisphere seats  -->
<!-- hidden seat, as Speaker takes one from main seating
<circle cx="51" cy="57" r="10"/>
-->
<circle cx="76" cy="41" r="10"/>
<circle cx="104" cy="29" r="10"/>
<circle cx="132" cy="22" r="10"/>
<!-- hidden seat, Serjeant-at-Arms
<circle cx="160" cy="20" r="10"/>
-->
<circle cx="200" cy="20" r="10"/>
<circle cx="228" cy="22" r="10"/>
<circle cx="256" cy="29" r="10"/>
<circle cx="284" cy="41" r="10"/>
<circle cx="309" cy="57" r="10"/>
<circle cx="332" cy="77" r="10"/>

<!-- 4th row, hemisphere seats  -->
<circle cx="200" cy="45" r="10"/>
<circle cx="228" cy="47" r="10"/>
<circle cx="256" cy="54" r="10"/>
<circle cx="284" cy="67" r="10"/>
<circle cx="309" cy="87" r="10"/>
<circle cx="332" cy="109" r="10"/>

<!-- 3rd row, hemisphere seats  -->
<circle cx="200" cy="70" r="10"/>
<circle cx="225" cy="72" r="10"/>
<circle cx="250" cy="78" r="10"/>
<circle cx="273" cy="90" r="10"/>
<circle cx="293" cy="106" r="10"/>
<circle cx="310" cy="124" r="10"/>
<circle cx="326" cy="142" r="10"/>
<circle cx="336" cy="165" r="10"/>
<circle cx="343" cy="192" r="10"/>
<circle cx="344" cy="220" r="10"/>

<!-- 2nd row, hemisphere seats  -->
<circle cx="200" cy="95" r="10"/>
<circle cx="231" cy="99" r="10"/>
<circle cx="260" cy="112" r="10"/>
<circle cx="285" cy="132" r="10"/>
<circle cx="304" cy="158" r="10"/>
<circle cx="316" cy="188" r="10"/>
<circle cx="320" cy="220" r="10"/>

<!-- 1st row, hemisphere seats  -->
<circle cx="200" cy="120" r="10"/>
<circle cx="233" cy="130" r="10"/>
<circle cx="263" cy="151" r="10"/>
<circle cx="286" cy="187" r="10"/>
<circle cx="296" cy="220" r="10"/>

<!-- 1st row seats  -->
<circle cx="296" cy="260" r="10"/>
<circle cx="296" cy="285" r="10"/>
<circle cx="296" cy="310" r="10"/>
<circle cx="296" cy="335" r="10"/>
<circle cx="296" cy="360" r="10"/>
<circle cx="296" cy="385" r="10"/> <!-- Prime Minister -->
<circle cx="296" cy="410" r="10"/> <!-- Deputy Prime Minister -->
<circle cx="296" cy="435" r="10"/>
<circle cx="296" cy="460" r="10"/>

<!-- 2nd row seats  -->
<circle cx="320" cy="260" r="10"/>
<circle cx="320" cy="285" r="10"/>
<circle cx="320" cy="310" r="10"/>
<circle cx="320" cy="335" r="10"/>
<circle cx="320" cy="360" r="10"/>
<circle cx="320" cy="385" r="10"/>
<circle cx="320" cy="410" r="10"/>
<circle cx="320" cy="435" r="10"/>
<circle cx="320" cy="460" r="10"/>

<!-- 3rd row seats  -->
<circle cx="344" cy="260" r="10"/>
<circle cx="344" cy="285" r="10"/>
<circle cx="344" cy="310" r="10"/>
<circle cx="344" cy="335" r="10"/>
<circle cx="344" cy="360" r="10"/>
<circle cx="344" cy="385" r="10"/>
<circle cx="344" cy="410" r="10"/>
<circle cx="344" cy="435" r="10"/>
<circle cx="344" cy="460" r="10"/>

</g>

<g style="fill:#098137" id="Green">

<!-- Index colour -->
<circle cx="115" cy="270" r="8"/>

<!-- 4th row, hemisphere seats  -->
<circle cx="160" cy="45" r="10"/>
<circle cx="132" cy="47" r="10"/>
<circle cx="104" cy="54" r="10"/>

<!-- 3rd row, hemisphere seats  -->
<circle cx="160" cy="70" r="10"/>
<circle cx="135" cy="72" r="10"/>
<circle cx="110" cy="78" r="10"/>

<!-- 2nd row, hemisphere seats  -->
<circle cx="160" cy="95" r="10"/>
<circle cx="129" cy="99" r="10"/>

<!-- 1st row, hemisphere seat  -->
<circle cx="160" cy="120" r="10"/>
<circle cx="127" cy="130" r="10"/>

</g>


</g>

<g style="fill:#EF4A42" id="Maori">

<!-- Index colour -->
<circle cx="115" cy="320" r="8"/>

<!-- 2nd row, hemisphere seats  -->
<circle cx="40" cy="220" r="10"/>

<!-- 1st row, hemisphere seat  -->
<circle cx="64" cy="220" r="10"/>

</g>

<g style="fill:#FDE401" id="ACT">

<!-- Index colour -->
<circle cx="115" cy="295" r="8"/>

<!-- 4th row, hemisphere seats  -->
<circle cx="76" cy="67" r="10"/>
<circle cx="51" cy="87" r="10"/>

<!-- 3rd row, hemisphere seats  -->
<circle cx="87" cy="90" r="10"/>
<circle cx="67" cy="106" r="10"/>

<!-- 2nd row, hemisphere seats  -->
<circle cx="100" cy="112" r="10"/>
<circle cx="75" cy="132" r="10"/>
<circle cx="56" cy="158" r="10"/>
<circle cx="44" cy="188" r="10"/>

<!-- 1st row, hemisphere seats  -->
<circle cx="97" cy="151" r="10"/>
<circle cx="74" cy="187" r="10"/>

</g>

<g style="fill:#00529F" id="National">

<!-- Index colour -->
<circle cx="115" cy="245" r="8"/>

<!-- 4th row, hemisphere seats  -->
<circle cx="28" cy="109" r="10"/>

<!-- 3rd row, hemisphere seats  -->
<circle cx="50" cy="124" r="10"/>
<circle cx="34" cy="142" r="10"/>
<circle cx="24" cy="165" r="10"/>
<circle cx="17" cy="192" r="10"/>
<circle cx="16" cy="220" r="10"/>

<!-- 3rd row seats  -->
<circle cx="16" cy="260" r="10"/>
<circle cx="16" cy="285" r="10"/>
<circle cx="16" cy="310" r="10"/>
<circle cx="16" cy="335" r="10"/>
<circle cx="16" cy="360" r="10"/>
<circle cx="16" cy="385" r="10"/>
<circle cx="16" cy="410" r="10"/>
<circle cx="16" cy="435" r="10"/>
<circle cx="16" cy="460" r="10"/>

<!-- 2nd row seats  -->
<circle cx="40" cy="260" r="10"/>
<circle cx="40" cy="285" r="10"/>
<circle cx="40" cy="310" r="10"/>
<circle cx="40" cy="335" r="10"/>
<circle cx="40" cy="360" r="10"/>
<circle cx="40" cy="385" r="10"/>
<circle cx="40" cy="410" r="10"/>
<circle cx="40" cy="435" r="10"/>
<circle cx="40" cy="460" r="10"/>

<!-- 1st row seats  -->
<circle cx="64" cy="260" r="10"/>
<circle cx="64" cy="285" r="10"/>
<circle cx="64" cy="310" r="10"/>
<circle cx="64" cy="335" r="10"/>
<circle cx="64" cy="360" r="10"/>
<circle cx="64" cy="385" r="10"/> <!-- Leader of the Opposition -->
<circle cx="64" cy="410" r="10"/>
<circle cx="64" cy="435" r="10"/>
<circle cx="64" cy="460" r="10"/>

</g>

<!-- Speaker seat box -->
<rect x="170" y="450" width="20" height="20"/>

<!-- Speaker seat colour -->
<g style="fill:#D82A20" id="Speaker">
<rect x="171.5" y="451.5" width="17" height="17"/>
</g>

</svg>